<svg width="54" height="32" viewBox="0 0 54 32" fill="none" xmlns="http://www.w3.org/2000/svg">
<path fill-rule="evenodd" clip-rule="evenodd" d="M4.45286 26.9406C7.41643 29.9621 11.1197 31.4678 15.5625 31.4678C18.4311 31.4678 21.0449 30.7604 23.4037 29.3507C25.7576 27.9411 27.5867 26.0665 28.8861 23.7221L22.2843 19.9074C21.6946 21.1402 20.8 22.1053 19.6006 22.7975C18.4011 23.4947 17.0368 23.8383 15.5025 23.8383C13.2236 23.8383 11.3395 23.0754 9.84526 21.5444C8.35098 20.0185 7.60634 18.0783 7.60634 15.7339C7.60634 13.3491 8.35098 11.3937 9.84526 9.86274C11.3395 8.33684 13.2236 7.56884 15.5025 7.56884C16.9968 7.56884 18.3412 7.92758 19.5406 8.64505C20.74 9.35747 21.6346 10.3326 22.2243 11.5604L28.7662 7.69011C27.5468 5.34568 25.7576 3.47621 23.4037 2.08674C21.0449 0.697263 18.4311 0 15.5625 0C11.1197 0 7.41643 1.51074 4.45286 4.53221C1.48429 7.54863 0 11.2876 0 15.7339C0 20.1853 1.48429 23.9192 4.45286 26.9406ZM32.0625 32L44.3627 0H54L41.7052 32H32.0625Z" fill="#3954FF"/>
</svg>
